<svg width="576" height="512" xmlns="http://www.w3.org/2000/svg">

 <g>
  <title>Layer 1</title>
  <path fill="#000000" id="svg_1" d="m575.8,255.5c0,18 -15,32.1 -32,32.1l-32,0l0.7,160.1c0,2.8 -0.2,5.4 -0.5,8.1l0,16.2c0,22.1 -17.9,40 -40,40l-16,0c-1.1,0 -2.2,-0.9 -3.3,-0.1c-1.4,-0.8 -2.8,0.1 -4.2,0.1l-56.5,0c-22.1,0 -40,-17.9 -40,-40l0,-88c0,-17.7 -14.3,-32 -32,-32l-64,0c-17.7,0 -32,14.3 -32,32l0,88c0,22.1 -17.9,40 -40,40l-55.9,0c-1.5,0 -3,-0.1 -4.5,-0.2c-1.2,0.1 -2.4,0.2 -3.6,0.2l-16,0c-22.09,0 -40,-17.9 -40,-40l0,-112c0,-0.9 0.03,-1.9 0.09,-2.8l0,-69.6l-32.04,0c-18.03,0 -32.05,-14.1 -32.05,-32.1c0,-9 3.004,-17 10.01,-24l256.39,-223.484c7,-7.014 15,-8.016 22,-8.016c7,0 15,2.004 21.1,7.014l255.3,224.486c8,7 12.1,15 11,24l0,0z"/>
 </g>
</svg>